<?xml version="1.0" encoding="utf-8"?>
<!-- Generator: Adobe Illustrator 22.0.1, SVG Export Plug-In . SVG Version: 6.00 Build 0)  -->
<svg version="1.1" id="Calque_1" xmlns="http://www.w3.org/2000/svg" xmlns:xlink="http://www.w3.org/1999/xlink" x="0px" y="0px"
	 viewBox="0 0 676.9 595.3" style="enable-background:new 0 0 676.9 595.3;" xml:space="preserve">
<style type="text/css">
	.st0{fill:#959595;}
</style>
<path class="st0" d="M670.7,69.1c0-33.2-26.9-60.1-60.1-60.1c-21,0-39.4,10.7-50.2,27l-335,409L111.1,325.8
	c-11-13.6-27.8-22.4-46.7-22.4c-33.2,0-60,26.9-60,60c0,17.8,7.8,33.7,20.1,44.7l139.3,145.4l1.3,1.3c16.6,16.3,39,25.4,62.2,25.4
	c1.6,0,3.2,0,4.7-0.1c24.8-1.3,48.1-13.1,63.8-32.4l357.1-436C663.8,100.9,670.7,85.8,670.7,69.1z"/>
</svg>
