<?xml version="1.0" encoding="utf-8"?>
<!-- Generator: Adobe Illustrator 22.0.1, SVG Export Plug-In . SVG Version: 6.00 Build 0)  -->
<svg version="1.1" id="Calque_1" xmlns="http://www.w3.org/2000/svg" xmlns:xlink="http://www.w3.org/1999/xlink" x="0px" y="0px"
	 viewBox="0 0 384.7 500" style="enable-background:new 0 0 384.7 500;" xml:space="preserve">
<style type="text/css">
	.st0{opacity:0.4;fill:#D6D8E5;enable-background:new    ;}
	.st1{fill:#D5D6E0;}
	.st2{fill:#E9EAF4;}
	.st3{fill:url(#SVGID_1_);}
	.st4{clip-path:url(#SVGID_3_);}
	.st5{fill:#005E5E;}
	.st6{opacity:5.000000e-02;enable-background:new    ;}
	.st7{fill:#C5C7D3;}
	.st8{fill:#38226D;}
	.st9{fill:#9C73FF;}
	.st10{fill:#FFCEA9;}
	.st11{fill:#EDEDED;}
	.st12{fill:#E5E5E5;}
	.st13{fill:#F4F4F4;}
	.st14{fill:#BFBFBF;}
	.st15{fill:#3A2C6D;}
	.st16{fill:#DCEEFF;}
	.st17{fill:#DBDBDB;}
	.st18{fill:#1E3779;}
	.st19{fill:#031F60;}
</style>
<title>Web_SVG</title>
<g id="Слой_2">
	<g id="Слой_1-2">
		<path class="st0" d="M228.2,397.3l-47.1-27.2c-2.2-1.3-1.9-3.5,0.6-4.9l45.8-26.5c2.5-1.5,6.4-1.6,8.6-0.4l47.1,27.2
			c2.2,1.3,1.9,3.5-0.6,4.9l-45.9,26.5C234.2,398.4,230.4,398.5,228.2,397.3z"/>
		<polygon class="st0" points="207.4,381 207.4,381 88.5,449.7 19.9,489.3 21.4,490.2 90,450.5 208.9,381.9 208.9,381.9 		"/>
		<path class="st1" d="M288,362.4l-2.3,0.7l-46.2-26.7c-2.2-1.3-6-1.1-8.6,0.4L185,363.2l-0.1,0.1l-2-0.6v3c0,0.1,0,0.2,0,0.3v0.2
			l0,0c0.2,0.8,0.7,1.5,1.4,1.9l47.1,27.2c2.2,1.3,6,1.1,8.6-0.4l46-26.4c1.1-0.5,1.9-1.5,2.1-2.6l0,0L288,362.4z"/>
		<path class="st2" d="M231.6,392.1L184.5,365c-2.2-1.3-1.9-3.5,0.6-4.9l45.9-26.5c2.5-1.5,6.4-1.6,8.6-0.4l47.1,27.2
			c2.2,1.3,1.9,3.5-0.6,4.9l-45.8,26.5C237.6,393.3,233.7,393.4,231.6,392.1z"/>
		<path class="st1" d="M255.4,360.3v-4l-5.7,1.5l-12.7-7.4c-1-0.5-2.2-0.4-3.2,0.1l-12.3,7.1l-5.8-1.5v4.3l0,0v1c0,0,0,0.1,0,0.1
			v0.1l0,0c0.1,0.3,0.3,0.6,0.6,0.7l17.9,10.4c1,0.5,2.2,0.4,3.2-0.1l17.4-10c0.4-0.2,0.7-0.6,0.8-1l0,0L255.4,360.3L255.4,360.3z"
			/>
		<path class="st2" d="M234,367.3L216.1,357c-0.8-0.5-0.7-1.3,0.2-1.9l17.4-10c1-0.6,2.2-0.6,3.3-0.1l17.8,10.3
			c0.8,0.5,0.7,1.3-0.2,1.9l-17.4,10C236.2,367.7,235,367.8,234,367.3z"/>
		
			<linearGradient id="SVGID_1_" gradientUnits="userSpaceOnUse" x1="235.625" y1="145.1156" x2="235.625" y2="244.3456" gradientTransform="matrix(1 0 0 -1 0 501.2756)">
			<stop  offset="0" style="stop-color:#E9EAF4"/>
			<stop  offset="0.63" style="stop-color:#E9EAF4;stop-opacity:0"/>
		</linearGradient>
		<polygon class="st3" points="235.5,356.2 129.1,260.9 342.2,256.9 		"/>
		<circle class="st2" cx="233.4" cy="151.3" r="151.3"/>
		<g>
			<defs>
				<circle id="SVGID_2_" cx="233.4" cy="151.3" r="151.3"/>
			</defs>
			<clipPath id="SVGID_3_">
				<use xlink:href="#SVGID_2_"  style="overflow:visible;"/>
			</clipPath>
			<g class="st4">
				<path class="st5" d="M193.6,61.3l0.5-1.8v-3.9c-0.7,0.1-1.4,0.1-2.2,0c-0.4-0.2-0.1-1.2-0.1-1.2l1.8-1.5l-3.6,0.8l-1.3,2l-4,2.5
					l1.8,1l1.1,0.8l1.7,0.3V59c0,0,2-0.5,2.5,0.3l-0.3,1.4L193.6,61.3z M149.4,116.6c-1-0.5-2.2-0.5-3.3,0c0,1.4-1.1,2.7-2.6,2.7
					l2.9,1.6l2.9-1.1l3.8-1.3l3.3,2.4c2.5-3,0-4.7,0-4.7L149.4,116.6z M211.5,172.2l-2.8-0.6l-4.9-3.1h-4.3l-3.7-1.9h-1.5
					c0,0,0.3-2.1-0.1-2.2s-3.7-2.1-3.7-2.1l-2.5,0.9v-1.8l-1.8-0.8h-1.5l0.1-1.5c0,0,1.3-2.6,0.6-3.1s-3.4-6.4-3.4-6.4l-4-2.2h-4.3
					l-3.7-3.6l-3.7-3l-2.1-4.2l-2.2-1.5c0,0-2.5,1.6-3.1,1.5s-4.3-1.5-4.3-1.5l-3.1-0.9l-3.9,1.8v4l-1.5-1v-1.5l1.3-2.5l0.6-1.8
					l-1.3-0.6l-1.8,2.1l-4.5,1.3l-0.9,1.9l-2.1,1.9l-0.6,1.6l-3.3-2.7c-1.1,0.6-2.3,1.1-3.4,1.5c-1.2-0.6-2.4-1.4-3.4-2.2l-1.6-3.1
					l0.9-4.2l0.7-4.3l-2.8-1.8h-3.9l-3-0.9l1.4-2.2l1.6-3.3l1.5-2.4c0,0,0.4-1.1,0.9-1.3c1.9-1,0-1.9,0-1.9s-4-0.3-4.6,0
					s-2.2,1.2-2.2,1.2v3.4l-3,1.3l-4.6,1l-3.1-3.1c-0.4-0.4-1.5-5.4-1.5-5.4l1.9-1.8l0.9-1.5l0.2-3.6l1.9-1.6l0.8-1.9l2.2-1.6
					l2.1-1.9l1.9-0.6l2.7,0.6c0.2-1,5.1-0.6,5.1-0.6l1.9-0.1l-0.2-1.1c0.9-0.8,3.9,0,3.9,0l4-0.3c0.9,0.2,1.6,2,1.6,2l-1.8,1.6
					l1.2,3.6l1.2,1.6l-0.4,1.6l2.9-0.4l0.1-2.8l0.1-3.4l-0.4-3.8l2.7-5.8l10.9-7l-0.1-2.5L151,76l1.9,0.7l3.4-4.1l4.5-1.5l2.7-1.8
					l1.3-2.7l4.9-1.5l4.9-2.5l-2.3,2.4l-0.3,2.1l2.7-0.6l2.4-1.3l2.1-0.6l1.9-0.6l0.6-1.3h-1.3l-2.1-0.8c-1.3-1-3-2.2-3-2.2
					c-0.1-0.5,0.1-1,0.4-1.3l1.4-1.2c0,0,0.6-0.7,0.1-0.7s-3.7-0.7-3.7-0.7l-3.6,1.4h-2l2.5-2.2h2.8l3.1-0.8h6.5l3.6-0.8l2.6-1.4
					l3.1-0.3l0.9-3.3l-2.1-1.8l-3-1.5l-0.6-3.5l-1.6-3.6h-1.5l-0.1,1.9h-2.4l-0.6,1.2l-0.9,0.6l-1.5,0.3l-1.4-1.3l1.8-1.9l-2.1-1.9
					l-2.5-1.3H172l-1.9,0.6l-2.7,3.1l-2.1,1.8l0.6,1.6l-0.8,2.5l0.4,1l-2.5,0.9l-2.8,0.6l-1.2-0.3l-0.9,1.2l1.6,3.3l-1.6,1.1h-2.2
					l-1.9-2.4l-0.4-1.4l1.3-0.7l-1-1.8l-3.1-0.2l-4.2-2.6h-1.9l-0.4-1.6l-1.3-0.6l1.9-2.2l2.8-1.6l4.9-1.8l1.8-0.6l3.9-0.9l2.6-1.4
					l2.4-2.1h3.1l3.7-0.9h2.4l1-2.8h-4.8l-1.8,1.4h-3.1c-0.7-0.7-1.5-1.1-2.4-1.4v-1.1l1.6-1.5l2.1-1.6c0.7-1,1.3-2,1.8-3.1l4.3,1.5
					l3.3-0.2l2.3-0.1l2.8,0.1l1.6,0.6c-0.4,1.2-2.2,0.3-2.2,0.3l-5.4,0.6l-2.4,1.3l0.8-1.6l-2.5,0.1l-3,1.9l2.1,1h4.9l2.7,1l2.2-0.9
					l2.4,0.9l2.8,0.9l-3.4,1.1l-3,1.4l-3,0.6l-2.4,0.9l1,2.1l6.3-0.2l3.9,2.4h3.3l0.1-1.3l0.7-1.3l1.5-0.3l-1.2-1.6l-0.4-1.2h1.8
					l1.5,1.1c1.2,0.9,3.7-1.1,3.7-1.1l3.7-1.4l-4.6-1.4l-1.5-1.5c0.4-0.9-4.9-2.2-4.9-2.2l-4.2-2.5l-1-1H178l2.8-1.2l7,0.7l3.6-0.7
					l8.2-2.1l5.5-1.3l4-1.5l-4.6-0.7c0,0-3.3,0.9-3.7,0.9s-4.3,0.3-4.8,0.3h-10.4l-3.3,0.7l3,0.8l-1.8,1h-3.1l-1.8,0.6l2.4-1.8
					l-2.5-0.6l-3.1,0.8l-3.9,2.2l1.8,0.6l2.5-1l2.1,0.4l-2.2,0.6l-0.9,1.2l1.5,0.5l-4,0.3l-7-1.2l-2.8,3.4l-5.7,4l1.5,1.2l-1,0.6
					l-1.3,0.7l-3.9-0.7l-5.4,1.4l-9.8,2.4L103.9,64L90.7,81.1l-7.6,45.6l13.4-4.5l2.1,2.2l3.6,0.6l2.4,1.5l2.5-1l2.1,2.1l4.6,2.5
					l4.5,0.6l1.3,4.5c0,0,3.1,2.8,3,3.4s1,3.3,1.6,3.3c1.5,0.5,2.9,1.2,4.3,1.9l2.5,0.3l1-2.2h2.2v2.2l0.9,1.2l0.3,3.4l0.9,2.5
					L135,153l-2.4,3l-3,4.1l0.3,4l-0.8,2.7l2.2,0.8l-1.9,2.7c0.4,1.1,0.7,2.3,1,3.4c0.5,1.3,1,2.5,1.6,3.7l2.1,1.8l0.9,3l5.1,10.4
					l3.6,3l5.2,2.7c0,0,3.3,3.6,3.4,4s1.8,7,1.8,7l-0.1,3.7l1,3.9l0.3,4.3l0.4,6l1.5,4.8l1.3,6.3l-1.6,2.1l1,3.1l1.2,4.5l2.1,2.2
					l-0.1,3.6l0.4,3.6l9.3,9.8l1.8,1.9v-4.6l3-1.7V260l-3-1.3v-2.1l1.5-1.3l1.5-2.4v-1.9c1.2-0.4,0-1.8,0-1.8h-2.1l-0.1-1.9h1.9
					l0.8,1.2l1.6-1.2l-1.2-2.4c0.3-0.7,2.4,0,2.4,0l3.6-2.1l1.5-1.8v-2.4l-1.7-1.5l-1.5-2.4h1.8c0,0,2.7,1.4,3.6,0s2.2-3.1,2.2-3.1
					l1.6-3.9c0,0,3.1-5.7,3.4-6.1s0-6,0-6l4.9-4h3.3l2.7-4.5l2.1-2.9v-5l0.7-4.8l-1.2-4.7l4.2-5.5l3.1-3l-1.2-5.5L211.5,172.2z
					 M244.7,55.1l1,0.6l1.4-1.2h1.9l1.8-0.6l0.8-1.1l-0.4-1.5l0.8-0.8c0.1-1.2-1.9-2.1-1.9-2.1H249l-1.4,1.6h-1.4l-0.5,1.8l0.2,1.3
					l-1.2,0.7L244.7,55.1z M253.7,43.8l-1.5,0.7v2.3l0.2,0.6c0.1,0.5,0.2,1,0.2,1.4l1.1,0.8l1.1,0.7l0.5,1c0,0-0.2,1-0.8,1l-1.4,0.4
					l0.5,0.9c0,0-1,0.5-1.1,0.9l0.9,0.7l-0.9,0.8h-1.9v1h3.9l1.6-1l2.4,0.4c0,0,2-0.4,2.4-0.4l-0.3-0.4l0.6-0.8l0.9-1.1l-1.2-0.5
					l-1.4-0.4l0.2-1.4l-1.3-1l-1.9-1.1l-0.2-2l0.2-1.7h-2l-0.4-0.8l1.2-1.1L253.7,43.8z M264.8,51.1v-0.6h1.4l0.8-0.5v-2.1l1-0.5
					l-0.3-1.7L266,45l-2.4,0.8V47l-1.4,0.2l-0.3,1.1l1,0.5l-1.6,0.9l-0.4,0.7l1.4,1.2L264.8,51.1z M350.2,102.4l5.6,3l2.9-1.1
					l1.9,2.7l5.1,1.1l2.2,1.1l6.3-16.5l-1.8-8.8l-28-45.8l-8.4-6.2H326l-4.5,0.6l-1.1,2.3L318,34l-1.1-2h-2.3l1,1l0.8,1.6h-3.5v2
					l-2.5-0.4l-1.5-0.2l-0.9,0.4l0.8,0.5l1.1,0.3l-1,0.4l-1.3-0.5l-1.7-0.6l-0.5-1.1l-1.2-1l-1.4-0.2l-1-1.2l2.2,0.2l1.9,0.9
					l1.6,0.2c0,0,1-0.3,1.1-0.1c0.8,0.2,1.6,0.4,2.4,0.5l1.3-1L310,32l-3.9-1.1c0,0-6.5-0.9-6.9-0.9c-0.9-0.2-1.9-0.5-2.8-0.9
					l-2.3-0.6h-5l-7.6,1.4l-4.2,2.7l-5,4.5c0,0-4.3,0.6-4.6,0.7c-0.7,0.6-1.4,1.2-2,1.9l1,2.2l-0.3,1l0.7,0.5l0.5,1l0.7,1l2.5-0.4
					l2.7-1.5l2.1,1.1l1.6,2.8l0.3,1.7l1.9,0.4l1.3-1.1l1.4-0.3l0.7-2.2l0.1-1.7l1.9-0.5v-1.1l-0.7-0.5l-0.9-0.6l-0.3-2l2.8-1.8
					c0,0,1.5-1.4,1.5-1.6s0.7-1.1,0.7-1.1s1.2,0.1,1.5,0.1s2.3,0.7,2.3,0.7l0.8,0.6l-2.3,1.1l-1.4,1.4l-1,0.7l0.9,2.2l2.4,1.2
					l2.2-0.4l3.4-0.2c0,0,3.9,0.8,4.1,0.9s-1.1,0.5-1.1,0.5l-1.5,0.4l-0.9,0.6l-1.5-0.7c-0.6-0.4-1.3-0.6-2-0.7
					c-0.6,0.1-1.2,0.4-1.7,0.7l0.9,1.4l1.3,0.9c0,0-0.5,1.6-0.9,1.5s-1-1.2-1-1.2l-1.4-0.6l-0.9,0.6l0.1,1.4l-0.4,1.9l-1.5,1
					l-1.1,0.9l-1.5-0.9l-1.9,0.6l-3.3-0.2l-0.7,0.7l-1.2-0.5c0,0-2.9,0.1-3.1,0.2c-0.7-0.2-1.3-0.5-1.9-0.9l-0.7-1.7l0.9-1.1
					l-0.4-0.5l-0.4-0.9l0.6-0.8l-0.9-0.2l-1.5,1.5l-0.1,1.5c0,0,0.8,1.4,0.9,1.6c0,0.4,0.1,0.9,0.1,1.3l-1.5,0.6l-1.7,0.5l0.3,0.6
					l1.7,0.3l-0.6,1l-1,0.1l-0.5,1.2l-0.3,0.7l-1.4-0.4l0.1-0.9l0.1-1.1l-0.5-0.6l-0.8,0.9l-0.9,1.1l-2,0.4l-0.9,0.7l-0.6,1.4
					l-1.5,0.7l-1.2,0.7l-1.8-0.9l-0.2,0.4l0.4,0.9l-0.4,0.5l-2.4-0.2l-1.3-0.2l-0.2,1.7l2.3,0.4l1.1,1c0,0,0.9,1.1,1,1.1
					s1.4,0.3,1.4,0.3l-0.5,2.7l-1.1,2.5l-4.6-0.1l-5.1-0.1l-1.6,0.6l-0.5,1.4l0.4,1.5l-0.9,2.8l-0.4,1.5c0,0.5,0.1,1,0.2,1.5
					c0.1,0.2,0.9,1.5,0.9,1.5l-0.6,2.1l1.7,0.5l2.8,0.2l1.5,0.8l1.1,0.2l1.9-0.8l2.8-0.4l2.6-2.2l-0.4-2.7l1.6-2l3.4-2.2l1.5-0.5
					l-0.2-2.2l2-1.2l2,0.7l1.4-0.7l4.2-1.3l4.1,3.8l5.7,3.9c0,0,1.2,2.3,1.2,2.5c-0.2,0.6-0.5,1.1-0.9,1.6H282l-1.2,0.3
					c0,0,0.4,0.9,0.6,0.9s2.8,1.2,2.8,1.2l0.8,0.6l0.4-0.1l-0.1-1.2l0.3-1.1l0.9,0.1c0.4-0.4,0.7-0.8,0.9-1.2
					c0.3-0.5,0.5-1.1,0.9-1.6l-0.7-1.3l0.4-0.9l1,0.1l0.1,1.3h0.4l-0.1-1.6l-1-0.6l-1.3-0.9l-0.9-1.3l-1.6-0.4l-1.9-1.3l-0.4-1.5
					l-1.7-0.9l-0.5-1.4l0.5-1.4l1.1-0.2l0.1,1.4l1.1,0.4l0.8-0.4l1.1,2l2.3,1.3l1.8,1l1.1,0.1l1.9,2l0.4,2.6l3.5,3.6l0.5,2.5
					l2.5,1.7l0.7-0.6l-0.4-1.6l1.4-0.7l-0.4-1.1l-1.4-0.5l-0.6-1.1l0.3-1.8l-0.8-0.9l0.7,0.1l0.5,0.7l0.9-1.2l1.5,0.1l1.5,0.6
					l1.1,1.5l1.1,1.7c0,0-0.7,0.4-0.8,0.6c0.1,0.5,0.4,0.9,0.6,1.4l1.4,1.3l1.1,1.6l2.2-0.1l0.3,1l1.6,0.2l1.5-0.4l0.4-1l0.7,0.9
					l1.8,0.6l1.5-0.1l1.3-1.4l1.2,0.5l0.9,0.6l-0.3,1.2l0.8,2.5l-1.1,2.6v3.4H313l-2.6,1l-4.1-2.1l-2.7,0.3l-4.6-1.7h-3.7l-1.1,1
					l0.6,1.8l-1.4,1.4l-3.7-2.2l-2.9,0.3l-1.1-1.9l-4.3-1.3l-3-1.4l-2.3-1.1l2.7-3.2l-0.8-2.7l-1.9-1.1l-11.4,1.3l-4.5,1.8l-2.9,0.2
					l-3,1.1l-3.7-0.8l-2.4,2.9l-2.9,1.9l-2.6,5.4l0.7,2.4l-3.4,3.2l-3.4,1.3l-1.6,3c0,0-3.5,7.8-3.9,8.5s0,4.7,0,4.7l1.4,4.6
					l-3.4,7.8l1.3,3.9l1.8,3.5l4.6,6.6l-0.1,3.3l9.6,7.3l6.4-2.6l6.2,2l7.7-4.2c0,0,2.6,0,3.4,1.4s1.3,2.7,4.2,2.7s4.3,3.2,4.3,3.2
					l-1.3,3.7l0.6,1.9l-1.3,3l3,6.2l2.2,4.8l2.1,4.6l0.5,5.9l-0.5,3.4l-3.7,6.4l1.1,9.9l1.3,2.2l-0.5,1.6l2.3,2.4l1.4,5.6l-1.3,5.3
					l1.9,4c0,0,1.8,4.3,1.9,4.8s1.3,2.1,1.1,2.9s-0.6,2.9-0.6,2.9l0.6,3.2h8.2l3.9-1.3l9.5-9.6c0.9-1,1.7-2.1,2.4-3.2
					c0.2-0.5,1.4-6.4,1.4-6.4l6.7-2.7v-5.2l-1.4-4.2l3.5-3.4l9.5-5.4l0.8-4.2v-7.2l-1.8-5.4l0.5-3.4l-1.6-1.5l3-4.5l1.1-5.9l4.5-2.7
					l1-2.7l8.2-8.5l2.6-8.1l2.4-4.4v-4.8l-2.2-0.8l-2.6,2.1l-3.5,0.3l-3.7,1l-3-1.9l0.3-2.4l-3.8-4.3l-3.9-2.3l-1.8-5.8l-3.8-3.6
					l-0.3-4.5l-2.7-4l-3.4-7.5l-3.5-3.5l-0.3-2.9l1.5,0.7l1.6,1.3l0.6,2.4c1.3,0,1.8-2.4,1.8-2.4l1.1,2.4l1.1,3l3.5,5.3l1.9,0.3
					l2.2,4.7l-0.2,2.1l6.4,6.6l1.1,6.1l1.1,2.7l2.1,2.1l9.6-2.6l1.8-1.6l4.2-1.3v-1.9l4.8-3.2l2-3.7l1.2-1.9l1.6-2.2l-2.6-3.7
					l-3.7-3.1l-1.2-3l-1.4,0.3l-1,2.9l-3.7,1l-1.9-1.3l-0.6-2.7l-1.3,0.3l-1.9-3.5l-1.8-1l-2.2-3.7l1.6-1.8L350.2,102.4z
					 M275.2,78.9l0.3-1.5v-2.2c-0.3-0.3-0.8-0.5-1.2-0.6c-0.3,0-0.6,0.1-0.9,0.3v2.4c0.1,0.5,0.1,1,0,1.5H275.2z M275.2,72.3
					c0.1-0.5-0.3-1-0.9-1.1c-0.1,0-0.2,0-0.3,0l-0.6,1.7l0.6,1.3h1.2V72.3z M231.5,28.5h6l3.3-4.7h7.5l1.2-3l4.6-2.5
					c2.2-1.9,0-5.4,0-5.4l-9.4-1.2l-9.4,1.2l-13.6-2.5l-8.4,3.8c0,0-6.1,3.3-6.9,3c-1.6-0.1-3.3-0.1-4.9,0c0,0,3,2.7,4.4,3
					c1,0.2,2,0.2,3,0c0,0,0,2.7,0.6,3.3c1.9,2.2-2,3.8-2,3.8V30c0,0,0.4,4.9,1.2,4.6s2.1,2.6,2.1,2.6l2.5,2.7h4.6l5.7-6.8l5.6-2.4
					L231.5,28.5z M349.4,191.7l-0.7-2l-0.9,0.8l-0.7,1.7l-1.7,1l-0.7,2.2l-1.1,2.6l-4.1,1.3l-1.8,3.1l-0.4,5.1l-1.5,2.5l-1.7,1.8
					l0.6,3l1.2,1.4l-1.2,1.6l1.2,1h3.9l2.2-3.3c0,0,1.8-3.8,1.8-4.1s0.9-3.8,0.9-3.8l3.1-4V198h2.1l-0.6-3.9L349.4,191.7z
					 M135.8,110.5l-4.6-1.6c0,0-1.3,0.2-2.8,0.5c-1.1,0.2-2.2,0.6-3.2,1l6.6,2.2h2.7l4.4,3.8h3c0,0,2.4-1.1,1.6-3l-3.8-1.4
					L135.8,110.5z"/>
			</g>
		</g>
		<path class="st6" d="M248.1,269c-83.6-0.1-151.4-67.9-151.3-151.5c0-14.6,2.1-29.1,6.3-43.1c-42.5,72-18.7,164.8,53.3,207.3
			s164.8,18.7,207.3-53.3c6.3-10.6,11.2-21.9,14.7-33.7C351.2,240.7,301.7,269,248.1,269z"/>
		<polygon class="st0" points="27.2,500 0,484.5 40.7,461.2 67.9,476.7 		"/>
		<polygon class="st2" points="27.8,468.7 5.2,455.7 27.8,442.7 50.3,455.7 		"/>
		<polygon class="st7" points="27.8,494.6 5.2,481.6 5.2,455.7 27.8,468.7 		"/>
		<polygon class="st1" points="50.3,481.6 27.8,494.6 27.8,468.7 50.3,455.7 		"/>
		<g id="Men_5">
			<path class="st8" d="M58,473.5c2,0.5,4,0.3,5.8-0.7c1.4,0,9-3.2,10-0.5c0.9,2.4-2.4,4.6-4.1,5c-3.8,0.9-6.7,2.8-8.2,3.2
				c-1.2,0.2-2.6,0.4-3.5-0.5C56.8,478.9,56.9,474.9,58,473.5z"/>
			<path class="st9" d="M61.5,479.8c1.5-0.3,4.4-2.2,8.2-3.2c1.5-0.4,4-2,4.3-3.9c0.3,2.2-2.6,4.1-4.3,4.5c-3.8,0.9-6.7,2.8-8.2,3.2
				c-1.2,0.2-2.6,0.4-3.5-0.5c-0.2-0.3-0.4-0.6-0.5-0.9C58.6,479.9,60.1,480.2,61.5,479.8z"/>
			<path class="st8" d="M44.3,466.2c2,0.5,4,0.3,5.8-0.7c1.4,0,9-3.2,10-0.5c0.9,2.4-2.4,4.6-4.1,5c-3.8,0.9-6.7,2.8-8.2,3.2
				c-1.2,0.2-2.6,0.4-3.5-0.5C43.2,471.6,43.3,467.6,44.3,466.2z"/>
			<path class="st9" d="M47.8,472.5c1.5-0.3,4.4-2.2,8.2-3.2c1.5-0.4,4-2,4.3-3.9c0.3,2.2-2.6,4.1-4.3,4.5c-3.8,0.9-6.7,2.8-8.2,3.2
				c-1.2,0.2-2.6,0.4-3.5-0.5c-0.2-0.3-0.4-0.6-0.5-0.9C44.9,472.7,46.4,472.9,47.8,472.5z"/>
			<path class="st5" d="M23,456.8c5.9,2.6,11.5,3,16,0.6l4.7-2.7c0.3,6.1,0.5,11.9,0.5,11.9s3.6,2.7,6.4,0.3c0,0,0.6-8.5,1.2-16.9
				l5-2.9c-0.1,0.4-0.2,0.9-0.2,1.4c0,1.6,1.1,25.3,1.1,25.3s3.6,2.2,6.4-0.3c0,0,1.9-27.5,2.3-31.9c0.5-4.9-5-7.4-8.5-6.1l-5.3,2
				c0.1-1.4,0.2-2.5,0.3-3c0.5-4.9-5-7.4-8.5-6.1c-3.2,1.1-24.5,9.1-24.5,9.1c0.1,2.1,0.4,4.1,0.8,6.1l-8.4-0.7
				C12,450.8,17.1,454.2,23,456.8z M37.8,443.1l5.6-3.3c-0.1,0.4-0.2,0.8-0.2,1.2L37.8,443.1z"/>
			<path class="st10" d="M7.9,418.8c0,0,0.7,10.5,2.1,12s6,2.5,6,2.5l3.6,5.9c0,0-3.3-18.7-4-19.2S7.9,418.8,7.9,418.8z"/>
			<path id="_Контур_" class="st11" d="M14.8,407.2c-1.8-0.8-4-0.2-5,1.5c-1.3,2.2-2.7,9.7-2.8,10.9c0,0,1.9,2.6,4.6,2.1
				L14.8,407.2z"/>
			<path id="_Контур_2" class="st10" d="M16,407.3c1.8,0.1,3.2,0.6,3.4,0c0.2-0.9,0.3-1.9,0.4-2.8c-0.2-0.5-0.4-1.1-0.4-1.1
				c-2.3-1.4-3-3.9-3.3-6.7c-0.5-4.9,2.1-9.2,7-9.7c4.6-0.5,8,2.8,8.9,7.2c0.5,2.2,1.5,6.3,0.2,9.9c-0.7,2-1.7,3.6-2.6,3.9
				c-0.9,0-1.8-0.1-2.7-0.2l0,0c0,0-0.2,1.4-0.4,2.2s-0.1,1.3,1.6,2.4s-2.6,3.3-5.5,3s-6.1-1.9-6.9-3.8
				C14.7,409.7,14.8,407.2,16,407.3z"/>
			<g id="_Группа_">
				<g id="_Группа_2">
					<g id="_Группа_3">
						<path id="_Контур_3" class="st12" d="M61.9,439.4L61.9,439.4c0,0.5-0.3,1-0.7,1.3l-13.8,8c-0.5,0.3-1,0.3-1.5,0
							l-19.4-11.2c-0.5-0.3-0.7-0.7-0.7-1.3V436L61.9,439.4z"/>
						<path id="_Контур_4" class="st12" d="M61.2,440.6l-13.8,8c-0.2,0.1-0.5,0.2-0.7,0.2v-9.4h15.3
							C61.9,439.9,61.6,440.4,61.2,440.6z"/>
						<g id="_Группа_4">
							<path id="_Контур_5" class="st13" d="M47.2,447.9c-0.3,0.2-0.7,0.2-1,0L26,436.3c-0.3-0.1-0.3-0.4,0-0.5l14.8-8.6
								l21.1,12.2L47.2,447.9z"/>
						</g>
						<g id="_Группа_5">
							<polygon id="_Контур_6" class="st14" points="34.3,439.4 34.4,439.4 40.8,443.1 44.4,441.1 44.5,441 37.9,437.3 
															"/>
							<polygon id="_Контур_7" class="st12" points="34.4,439.4 40.8,443.1 44.4,441.1 37.9,437.4 							"/>
						</g>
						<path class="st15" d="M56.5,440l0.9,0.5c0.1,0,0.2,0,0.3,0l0.9-0.5c0.1,0,0.1-0.1,0-0.2l-0.9-0.5c-0.1,0-0.2,0-0.3,0l-0.9,0.5
							C56.4,439.8,56.4,439.9,56.5,440z"/>
						<path class="st15" d="M55.2,439.2l0.9,0.5c0.1,0,0.2,0,0.3,0l0.9-0.5c0.1,0,0.1-0.1,0-0.2l-0.9-0.5c-0.1,0-0.2,0-0.3,0
							l-0.9,0.5C55.1,439.1,55.1,439.1,55.2,439.2z"/>
						<path class="st15" d="M53.8,438.4l0.9,0.5c0.1,0,0.2,0,0.3,0l0.9-0.5c0.1,0,0.1-0.1,0-0.2l-0.9-0.5c-0.1,0-0.2,0-0.3,0
							l-0.9,0.5C53.8,438.3,53.8,438.4,53.8,438.4z"/>
						<path class="st15" d="M52.5,437.7l0.9,0.5c0.1,0,0.2,0,0.3,0l0.9-0.5c0.1,0,0.1-0.1,0-0.2l-0.9-0.5c-0.1,0-0.2,0-0.3,0
							l-0.9,0.5C52.5,437.6,52.4,437.6,52.5,437.7z"/>
						<path class="st15" d="M51.2,436.9l0.9,0.5c0.1,0,0.2,0,0.3,0l0.9-0.5c0.1,0,0.1-0.1,0-0.2l-0.9-0.5c-0.1,0-0.2,0-0.3,0
							l-0.9,0.5C51.1,436.8,51.1,436.9,51.2,436.9z"/>
						<path class="st15" d="M49.9,436.2l0.9,0.5c0.1,0,0.2,0,0.3,0l0.9-0.5c0.1,0,0.1-0.1,0-0.2l-0.9-0.5c-0.1,0-0.2,0-0.3,0
							l-0.9,0.5C49.8,436,49.8,436.1,49.9,436.2z"/>
						<path class="st15" d="M48.6,435.4l0.9,0.5c0.1,0,0.2,0,0.3,0l0.9-0.5c0.1,0,0.1-0.1,0-0.2l-0.9-0.5c-0.1,0-0.2,0-0.3,0
							l-0.9,0.5C48.5,435.3,48.5,435.3,48.6,435.4z"/>
						<path class="st15" d="M47.3,434.6l0.9,0.5c0.1,0,0.2,0,0.3,0l0.9-0.5c0.1,0,0.1-0.1,0-0.2l-0.9-0.5c-0.1,0-0.2,0-0.3,0
							l-0.9,0.5C47.2,434.5,47.2,434.6,47.3,434.6z"/>
						<path class="st15" d="M45.9,433.9l0.9,0.5c0.1,0,0.2,0,0.3,0l0.9-0.5c0.1,0,0.1-0.1,0-0.2l-0.9-0.5c-0.1,0-0.2,0-0.3,0
							l-0.9,0.5C45.9,433.8,45.9,433.8,45.9,433.9z"/>
						<path class="st15" d="M44.6,433.1l0.9,0.5c0.1,0,0.2,0,0.3,0l0.9-0.5c0.1,0,0.1-0.1,0-0.2l-0.9-0.5c-0.1,0-0.2,0-0.3,0
							l-0.9,0.5C44.5,433,44.5,433.1,44.6,433.1z"/>
						<path class="st15" d="M43.3,432.4l0.9,0.5c0.1,0,0.2,0,0.3,0l0.9-0.5c0.1,0,0.1-0.1,0-0.2l-0.9-0.5c-0.1,0-0.2,0-0.3,0
							l-0.9,0.5C43.2,432.2,43.2,432.3,43.3,432.4z"/>
						<path class="st15" d="M42,431.6l0.9,0.5c0.1,0,0.2,0,0.3,0l0.9-0.5c0.1,0,0.1-0.1,0-0.2l-0.9-0.5c-0.1,0-0.2,0-0.3,0l-0.9,0.5
							C41.9,431.5,41.9,431.5,42,431.6z"/>
						<path class="st15" d="M40.7,430.8l0.9,0.5c0.1,0,0.2,0,0.3,0l0.9-0.5c0.1,0,0.1-0.1,0-0.2l-0.9-0.5c-0.1,0-0.2,0-0.3,0
							l-0.9,0.5C40.6,430.7,40.6,430.8,40.7,430.8z"/>
						<path class="st15" d="M38.7,429.7l1.6,0.9c0.1,0,0.2,0,0.3,0l0.9-0.5c0.1,0,0.1-0.1,0-0.2l-1.6-0.9c-0.1,0-0.2,0-0.3,0
							l-0.9,0.5C38.7,429.6,38.6,429.7,38.7,429.7z"/>
						<path class="st15" d="M53.2,439.6l0.9,0.5c0.1,0,0.2,0,0.3,0l0.9-0.5c0.1,0,0.1-0.1,0-0.2l-0.9-0.5c-0.1,0-0.2,0-0.3,0
							l-0.9,0.5C53.2,439.4,53.2,439.5,53.2,439.6z"/>
						<path class="st15" d="M51.9,438.8l0.9,0.5c0.1,0,0.2,0,0.3,0l0.9-0.5c0.1,0,0.1-0.1,0-0.2l-0.9-0.5c-0.1,0-0.2,0-0.3,0
							l-0.9,0.5C51.8,438.7,51.8,438.8,51.9,438.8z"/>
						<path class="st15" d="M50.6,438l0.9,0.5c0.1,0,0.2,0,0.3,0l0.9-0.5c0.1,0,0.1-0.1,0-0.2l-0.9-0.5c-0.1,0-0.2,0-0.3,0l-0.9,0.5
							C50.5,437.9,50.5,438,50.6,438z"/>
						<path class="st15" d="M49.3,437.3l0.9,0.5c0.1,0,0.2,0,0.3,0l0.9-0.5c0.1,0,0.1-0.1,0-0.2l-0.9-0.5c-0.1,0-0.2,0-0.3,0
							l-0.9,0.5C49.2,437.2,49.2,437.2,49.3,437.3z"/>
						<path class="st15" d="M48,436.5l0.9,0.5c0.1,0,0.2,0,0.3,0l0.9-0.5c0.1,0,0.1-0.1,0-0.2l-0.9-0.5c-0.1,0-0.2,0-0.3,0l-0.9,0.5
							C47.9,436.4,47.9,436.5,48,436.5z"/>
						<path class="st15" d="M46.7,435.8l0.9,0.5c0.1,0,0.2,0,0.3,0l0.9-0.5c0.1,0,0.1-0.1,0-0.2l-0.9-0.5c-0.1,0-0.2,0-0.3,0
							l-0.9,0.5C46.6,435.6,46.6,435.7,46.7,435.8z"/>
						<path class="st15" d="M45.3,435l0.9,0.5c0.1,0,0.2,0,0.3,0l0.9-0.5c0.1,0,0.1-0.1,0-0.2l-0.9-0.5c-0.1,0-0.2,0-0.3,0l-0.9,0.5
							C45.3,434.9,45.3,435,45.3,435z"/>
						<path class="st15" d="M44,434.2l0.9,0.5c0.1,0,0.2,0,0.3,0l0.9-0.5c0.1,0,0.1-0.1,0-0.2l-0.9-0.5c-0.1,0-0.2,0-0.3,0l-0.9,0.5
							C44,434.1,43.9,434.2,44,434.2z"/>
						<path class="st15" d="M42.7,433.5l0.9,0.5c0.1,0,0.2,0,0.3,0l0.9-0.5c0.1-0.1,0.1-0.1,0-0.2l-0.9-0.5c-0.1,0-0.2,0-0.3,0
							l-0.9,0.5C42.6,433.4,42.6,433.4,42.7,433.5z"/>
						<path class="st15" d="M41.4,432.7l0.9,0.5c0.1,0,0.2,0,0.3,0l0.9-0.5c0.1,0,0.1-0.1,0-0.2l-0.9-0.5c-0.1,0-0.2,0-0.3,0
							l-0.9,0.5C41.3,432.6,41.3,432.7,41.4,432.7z"/>
						<path class="st15" d="M40.1,432l0.9,0.5c0.1,0,0.2,0,0.3,0l0.9-0.5c0.1,0,0.1-0.1,0-0.2l-0.9-0.5c-0.1,0-0.2,0-0.3,0l-0.9,0.5
							C40,431.8,40,431.9,40.1,432z"/>
						<path class="st15" d="M38.7,431.2l0.9,0.5c0.1,0,0.2,0,0.3,0l0.9-0.5c0.1,0,0.1-0.1,0-0.2l-0.9-0.5c-0.1,0-0.2,0-0.3,0
							l-0.9,0.5C38.7,431.1,38.7,431.2,38.7,431.2z"/>
						<path class="st15" d="M54.5,440.3l1.6,0.9c0.1,0,0.2,0,0.3,0l0.9-0.5c0.1,0,0.1-0.1,0-0.2l-1.6-0.9c-0.1,0-0.2,0-0.3,0
							l-0.9,0.5C54.5,440.2,54.5,440.3,54.5,440.3z"/>
						<path class="st15" d="M38.6,429.7l0.9,0.5c0.1,0,0.1,0.1,0,0.1l-0.9,0.5c-0.1,0-0.2,0-0.3,0l-0.1,0c-0.1,0-0.2,0-0.3,0l-1,0.6
							c-0.1,0-0.2,0-0.3,0l-0.6-0.3c-0.1,0-0.1-0.1,0-0.2l0.9-0.5l0.2-0.1l0.1-0.1l0.1-0.1l0.8-0.5
							C38.4,429.7,38.5,429.7,38.6,429.7z"/>
						<path class="st15" d="M51.4,442.9l0.9,0.5c0.1,0,0.2,0,0.3,0l0.9-0.5c0.1,0,0.1-0.1,0-0.2l-0.9-0.5c-0.1,0-0.2,0-0.3,0
							l-0.9,0.5C51.3,442.8,51.3,442.9,51.4,442.9z"/>
						<path class="st15" d="M50,442.1l0.9,0.5c0.1,0,0.2,0,0.3,0l0.9-0.5c0.1,0,0.1-0.1,0-0.2l-0.9-0.5c-0.1,0-0.2,0-0.3,0L50,442
							C50,442,50,442.1,50,442.1z"/>
						<path class="st15" d="M48.7,441.4l0.9,0.5c0.1,0,0.2,0,0.3,0l0.9-0.5c0.1,0,0.1-0.1,0-0.2l-0.9-0.5c-0.1,0-0.2,0-0.3,0
							l-0.9,0.5C48.7,441.3,48.7,441.3,48.7,441.4z"/>
						<path class="st15" d="M37.5,434.9l0.9,0.5c0.1,0,0.2,0,0.3,0l0.9-0.5c0.1,0,0.1-0.1,0-0.2l-0.9-0.5c-0.1,0-0.2,0-0.3,0
							l-0.9,0.5C37.5,434.8,37.5,434.9,37.5,434.9z"/>
						<path class="st15" d="M36.2,434.2l0.9,0.5c0.1,0,0.2,0,0.3,0l0.9-0.5c0.1,0,0.1-0.1,0-0.2l-0.9-0.5c-0.1,0-0.2,0-0.3,0
							l-0.9,0.5C36.2,434,36.2,434.1,36.2,434.2z"/>
						<path class="st15" d="M34.9,433.4l0.9,0.5c0.1,0,0.2,0,0.3,0l0.9-0.5c0.1,0,0.1-0.1,0-0.2l-0.9-0.5c-0.1,0-0.2,0-0.3,0
							l-0.9,0.5C34.9,433.3,34.8,433.4,34.9,433.4z"/>
						<path class="st15" d="M33.6,432.7l0.9,0.5c0.1,0,0.2,0,0.3,0l0.9-0.5c0.1,0,0.1-0.1,0-0.2l-0.9-0.5c-0.1,0-0.2,0-0.3,0
							l-0.9,0.5C33.5,432.5,33.5,432.6,33.6,432.7z"/>
						<path class="st15" d="M47.1,440.4l1.3,0.7c0.1,0,0.2,0,0.3,0l0.9-0.5c0.1,0,0.1-0.1,0-0.2l-1.3-0.7c-0.1,0-0.2,0-0.3,0
							l-0.9,0.5C47,440.3,47,440.4,47.1,440.4z"/>
						<path class="st15" d="M38.9,435.7l1.3,0.7c0.1,0,0.2,0,0.3,0l0.9-0.5c0.1,0,0.1-0.1,0-0.2l-1.3-0.7c-0.1,0-0.2,0-0.3,0
							l-0.9,0.5C38.8,435.6,38.8,435.6,38.9,435.7z"/>
						<path class="st15" d="M40.5,436.6l6.2,3.6c0.1,0,0.2,0,0.3,0l0.9-0.5c0.1,0,0.1-0.1,0-0.2l-6.2-3.6c-0.1,0-0.2,0-0.3,0
							l-0.9,0.5C40.5,436.5,40.4,436.6,40.5,436.6z"/>
						<path class="st15" d="M51.6,440.1l0.9,0.5c0.1,0,0.2,0,0.3,0l0.9-0.5c0.1,0,0.1-0.1,0-0.2l-0.9-0.5c-0.1,0-0.2,0-0.3,0
							l-0.9,0.5C51.5,440,51.5,440,51.6,440.1z"/>
						<path class="st15" d="M50.3,439.3l0.9,0.5c0.1,0,0.2,0,0.3,0l0.9-0.5c0.1,0,0.1-0.1,0-0.2l-0.9-0.5c-0.1,0-0.2,0-0.3,0
							l-0.9,0.5C50.2,439.2,50.2,439.3,50.3,439.3z"/>
						<path class="st15" d="M49,438.6l0.9,0.5c0.1,0,0.2,0,0.3,0l0.9-0.5c0.1,0,0.1-0.1,0-0.2l-0.9-0.5c-0.1,0-0.2,0-0.3,0l-0.9,0.5
							C48.9,438.5,48.9,438.5,49,438.6z"/>
						<path class="st15" d="M47.7,437.8l0.9,0.5c0.1,0,0.2,0,0.3,0l0.9-0.5c0.1,0,0.1-0.1,0-0.2l-0.9-0.5c-0.1,0-0.2,0-0.3,0
							l-0.9,0.5C47.6,437.7,47.6,437.8,47.7,437.8z"/>
						<path class="st15" d="M46.3,437.1l0.9,0.5c0.1,0,0.2,0,0.3,0l0.9-0.5c0.1,0,0.1-0.1,0-0.2l-0.9-0.5c-0.1,0-0.2,0-0.3,0
							l-0.9,0.5C46.3,436.9,46.3,437,46.3,437.1z"/>
						<path class="st15" d="M45,436.3l0.9,0.5c0.1,0,0.2,0,0.3,0l0.9-0.5c0.1,0,0.1-0.1,0-0.2l-0.9-0.5c-0.1,0-0.2,0-0.3,0l-0.9,0.5
							C45,436.2,45,436.3,45,436.3z"/>
						<path class="st15" d="M43.7,435.5l0.9,0.5c0.1,0,0.2,0,0.3,0l0.9-0.5c0.1,0,0.1-0.1,0-0.2l-0.9-0.5c-0.1,0-0.2,0-0.3,0
							l-0.9,0.5C43.7,435.4,43.6,435.5,43.7,435.5z"/>
						<path class="st15" d="M42.4,434.8l0.9,0.5c0.1,0,0.2,0,0.3,0l0.9-0.5c0.1,0,0.1-0.1,0-0.2l-0.9-0.5c-0.1,0-0.2,0-0.3,0
							l-0.9,0.5C42.3,434.7,42.3,434.7,42.4,434.8z"/>
						<path class="st15" d="M41.1,434l0.9,0.5c0.1,0,0.2,0,0.3,0l0.9-0.5c0.1,0,0.1-0.1,0-0.2l-0.9-0.5c-0.1,0-0.2,0-0.3,0l-0.9,0.5
							C41,433.9,41,434,41.1,434z"/>
						<path class="st15" d="M39.8,433.3l0.9,0.5c0.1,0,0.2,0,0.3,0l0.9-0.5c0.1,0,0.1-0.1,0-0.2l-0.9-0.5c-0.1,0-0.2,0-0.3,0
							l-0.9,0.5C39.7,433.1,39.7,433.2,39.8,433.3z"/>
						<path class="st15" d="M38.5,432.5l0.9,0.5c0.1,0,0.2,0,0.3,0l0.9-0.5c0.1,0,0.1-0.1,0-0.2l-0.9-0.5c-0.1,0-0.2,0-0.3,0
							l-0.9,0.5C38.4,432.4,38.4,432.5,38.5,432.5z"/>
						<path class="st15" d="M37.1,431.7l0.9,0.5c0.1,0,0.2,0,0.3,0l0.9-0.5c0.1,0,0.1-0.1,0-0.2l-0.9-0.5c-0.1,0-0.2,0-0.3,0
							l-0.9,0.5C37.1,431.6,37.1,431.7,37.1,431.7z"/>
						<path class="st15" d="M52.9,440.9l1.9,1.1c0.1,0,0.2,0,0.3,0l0.9-0.5c0.1,0,0.1-0.1,0-0.2l-1.9-1.1c-0.1,0-0.2,0-0.3,0
							l-0.9,0.5C52.8,440.7,52.8,440.8,52.9,440.9z"/>
						<path class="st15" d="M51,441.2l0.9,0.5c0.1,0,0.2,0,0.3,0l0.9-0.5c0.1,0,0.1-0.1,0-0.2l-0.9-0.5c-0.1,0-0.2,0-0.3,0L51,441
							C50.9,441.1,50.9,441.2,51,441.2z"/>
						<path class="st15" d="M49.7,440.4l0.9,0.5c0.1,0,0.2,0,0.3,0l0.9-0.5c0.1,0,0.1-0.1,0-0.2l-0.9-0.5c-0.1,0-0.2,0-0.3,0
							l-0.9,0.5C49.6,440.3,49.6,440.4,49.7,440.4z"/>
						<path class="st15" d="M48.3,439.7l0.9,0.5c0.1,0,0.2,0,0.3,0l0.9-0.5c0.1-0.1,0.1-0.1,0-0.2l-0.9-0.5c-0.1,0-0.2,0-0.3,0
							l-0.9,0.5C48.3,439.6,48.3,439.6,48.3,439.7z"/>
						<path class="st15" d="M47,438.9l0.9,0.5c0.1,0,0.2,0,0.3,0l0.9-0.5c0.1,0,0.1-0.1,0-0.2l-0.9-0.5c-0.1,0-0.2,0-0.3,0l-0.9,0.5
							C47,438.8,47,438.9,47,438.9z"/>
						<path class="st15" d="M45.7,438.2l0.9,0.5c0.1,0,0.2,0,0.3,0l0.9-0.5c0.1,0,0.1-0.1,0-0.2l-0.9-0.5c-0.1,0-0.2,0-0.3,0
							l-0.9,0.5C45.7,438,45.6,438.1,45.7,438.2z"/>
						<path class="st15" d="M44.4,437.4l0.9,0.5c0.1,0,0.2,0,0.3,0l0.9-0.5c0.1,0,0.1-0.1,0-0.2l-0.9-0.5c-0.1,0-0.2,0-0.3,0
							l-0.9,0.5C44.3,437.3,44.3,437.4,44.4,437.4z"/>
						<path class="st15" d="M43.1,436.7l0.9,0.5c0.1,0,0.2,0,0.3,0l0.9-0.5c0.1,0,0.1-0.1,0-0.2l-0.9-0.5c-0.1,0-0.2,0-0.3,0
							l-0.9,0.5C43,436.5,43,436.6,43.1,436.7z"/>
						<path class="st15" d="M41.8,435.9l0.9,0.5c0.1,0,0.2,0,0.3,0l0.9-0.5c0.1,0,0.1-0.1,0-0.2l-0.9-0.5c-0.1,0-0.2,0-0.3,0
							l-0.9,0.5C41.7,435.8,41.7,435.8,41.8,435.9z"/>
						<path class="st15" d="M40.5,435.1l0.9,0.5c0.1,0,0.2,0,0.3,0l0.9-0.5c0.1,0,0.1-0.1,0-0.2l-0.9-0.5c-0.1,0-0.2,0-0.3,0
							l-0.9,0.5C40.4,435,40.4,435.1,40.5,435.1z"/>
						<path class="st15" d="M39.2,434.4l0.9,0.5c0.1,0,0.2,0,0.3,0l0.9-0.5c0.1,0,0.1-0.1,0-0.2l-0.9-0.5c-0.1,0-0.2,0-0.3,0
							l-0.9,0.5C39.1,434.3,39.1,434.3,39.2,434.4z"/>
						<path class="st15" d="M37.8,433.6l0.9,0.5c0.1,0,0.2,0,0.3,0l0.9-0.5c0.1,0,0.1-0.1,0-0.2l-0.9-0.5c-0.1,0-0.2,0-0.3,0
							l-0.9,0.5C37.8,433.5,37.8,433.6,37.8,433.6z"/>
						<path class="st15" d="M34.9,431.9l2.6,1.5c0.1,0,0.2,0,0.3,0l0.9-0.5c0.1,0,0.1-0.1,0-0.2l-2.6-1.5c-0.1,0-0.2,0-0.3,0
							l-0.9,0.5C34.8,431.8,34.8,431.9,34.9,431.9z"/>
						<path class="st15" d="M52.3,442l1.3,0.7c0.1,0,0.2,0,0.3,0l0.9-0.5c0.1,0,0.1-0.1,0-0.2l-1.3-0.7c-0.1,0-0.2,0-0.3,0l-0.9,0.5
							C52.2,441.8,52.2,441.9,52.3,442z"/>
					</g>
					<g id="_Группа_6">
						<g id="_Группа_7">
							<g id="_Группа_8">
								<path id="_Контур_8" class="st12" d="M61.9,439.4L61.9,439.4l-21.1-12.2v-16.6l0.2-0.4l0.2-0.1l0,0
									c0.4-0.3,1-0.3,1.5,0l19.3,11.1c0.5,0.3,0.7,0.7,0.7,1.3v15.6C62.5,438.9,62.4,439.1,61.9,439.4z"/>
								<path id="_Контур_9" class="st12" d="M60,423.3l-19.2-12.1v-0.5l0.2-0.4l0.2-0.1c0.4-0.3,1-0.3,1.5,0l19.3,11.1
									c0.2,0.1,0.4,0.3,0.6,0.6L60,423.3z"/>
								<path id="_Контур_10" class="st16" d="M41.3,410.2l20.3,11.7c0.2,0.1,0.3,0.4,0.3,0.6v16.9l-21.1-12.2v-16.7
									c0-0.2,0.2-0.3,0.3-0.3C41.2,410.2,41.3,410.2,41.3,410.2z"/>
								<path id="_Контур_11" class="st13" d="M41.3,410.2l20.3,11.7c0.2,0.1,0.3,0.4,0.3,0.6v16.9l-21.1-12.2v-16.7
									c0-0.2,0.2-0.3,0.3-0.3C41.2,410.2,41.3,410.2,41.3,410.2z"/>
								<polygon id="_Контур_12" class="st17" points="61.9,439.4 61.9,438.7 40.8,426.6 40.8,427.2 								"/>
							</g>
							<polygon id="_Контур_13" class="st18" points="41.4,426.3 41.4,411.1 41.6,411.2 41.6,426.2 							"/>
							<polygon id="_Контур_14" class="st15" points="41.6,411.2 41.6,426.2 61.3,437.5 61.3,422.5 							"/>
							<polygon id="_Контур_15" class="st19" points="41.4,426.3 61.3,437.8 61.3,437.5 41.6,426.2 							"/>
						</g>
					</g>
				</g>
			</g>
			<path id="_Контур_16" class="st13" d="M18.7,407.6c-0.5,1.3,0.8,2.8,4.2,3.9s3.7-0.3,3.7-0.3c2.3,1,4.5,2.1,6.6,3.4
				c2,1.4,2.9,5.6,3.2,12.5c0.3,8.1,0.3,20,0.1,22.1c0,0-3.8,3.8-8.7,3.4s-13.1-4.7-15.1-8.1c0.1-7.1,0.9-8.2-0.3-12.3
				c-2.6-9.3-4-13.1-2.7-19.4c1.1-5.1,2.5-5.8,4.5-5.7C15.7,407.2,17.2,407.3,18.7,407.6z"/>
			<path id="_Контур_17" class="st10" d="M44.4,435.7c-4,1-5-1.5-5.5-3.6c-1.3-5.1-2-9.6-2.9-12.5c-1.1-3.4-2.3-3.9-3.9-4.6
				c-1.9-0.8-3.6,0.9-3,5.2c0.8,5,2,9.9,3.7,14.7c0.5,1.6,1.6,4.4,3.3,5.7c2.1,1.7,5.2,1.6,9.9,0.4c2-0.5,4.2-1.7,8-3.5
				c1-0.5,1.8-0.8,3.8-1.7c2-0.9,3.7-2.2,5-3.9c1-1.5,1.2-2.2,1-2.5s-0.7-0.3-1.3,0.3c-0.8,1.1-1.8,2-2.9,2.7c0,0,1.3-1.3,2-2.2
				c0.6-0.7,1.1-1.6,1.5-2.5c0.4-0.9-0.4-2-1-1.4s-0.8,1.3-1.9,2.5c-0.5,0.7-1.2,1.3-1.8,1.8c0.6-0.9,1.2-1.8,1.7-2.8
				c0.4-0.8,0.7-1.6,0.6-2.5c0-0.5-0.7-1-1.3-0.1c-0.6,1.2-1.3,2.3-2.2,3.3c-0.9,1-1.7,1.5-1.7,1.2s0.6-0.8,0.9-1.9s0-2.3-0.6-2.4
				s-0.5-0.1-1,0.9c-0.7,1.1-1.3,2.2-1.8,3.3c-0.3,1.1-0.9,2-1.7,2.8C50.4,433.6,48.2,434.7,44.4,435.7z"/>
			<path id="_Контур_18" class="st11" d="M30.6,414.3c2.7-0.4,4.6,0.8,5.7,4.9s2,7.4,2,7.4c-1.1,1.5-2.7,2.6-4.5,3
				c-3.2,0.8-4.4-0.8-4.4-0.8s-0.9-4.3-1.4-7.1S27.3,414.8,30.6,414.3z"/>
			<path class="st15" d="M31.9,393.5c0,0,4.2-6.4-4.9-7.7c-6.6-1-10.9,3.3-11.3,7.9c-0.5,4.4,2.2,9,4.2,10.8c1.9,0.5,4,0.2,5.7-0.7
				c0.1-1.2,0.1-2.4,0.1-3.6C25.7,400.2,22.5,393.4,31.9,393.5z"/>
		</g>
		<polygon class="st1" points="50.3,474.9 50.3,455.6 34.9,464.5 40.8,476.7 		"/>
		<polygon class="st2" points="40.2,456.7 46.1,453.3 50.3,455.7 44.2,459.1 		"/>
		<ellipse class="st1" cx="235.6" cy="356.2" rx="4.1" ry="2.4"/>
	</g>
</g>
</svg>
